<mxfile host="app.diagrams.net" modified="2023-06-14T08:17:40.017Z" agent="Mozilla/5.0 (Macintosh; Intel Mac OS X 10_15_7) AppleWebKit/537.36 (KHTML, like Gecko) Chrome/114.0.0.0 Safari/537.36" etag="cFLQF-Re0RhqGyBv2IAj" version="21.3.8">
  <diagram id="AllzhJJeG0eL6vwa1mOl" name="Page-1">
    <mxGraphModel dx="652" dy="677" grid="0" gridSize="10" guides="1" tooltips="1" connect="1" arrows="1" fold="1" page="1" pageScale="1" pageWidth="827" pageHeight="1169" math="0" shadow="0">
      <root>
        <mxCell id="0" />
        <mxCell id="1" parent="0" />
        <mxCell id="erCxGVNcBSu2ljuZGB63-1" value="" style="rounded=1;whiteSpace=wrap;html=1;fillColor=#FFFFFF;strokeColor=#666666;fontColor=#333333;dashed=1;fontSize=11;fontFamily=PT Serif;fontSource=https%3A%2F%2Ffonts.googleapis.com%2Fcss%3Ffamily%3DPT%2BSerif;" parent="1" vertex="1">
          <mxGeometry x="241.99999999999983" y="267" width="130" height="271" as="geometry" />
        </mxCell>
        <mxCell id="erCxGVNcBSu2ljuZGB63-2" value="&lt;font style=&quot;font-size: 11px;&quot;&gt;Normalización&lt;/font&gt;" style="rounded=1;whiteSpace=wrap;html=1;fillColor=#FFFFFF;strokeColor=#1A1A1A;flipV=1;fontFamily=PT Serif;fontSource=https%3A%2F%2Ffonts.googleapis.com%2Fcss%3Ffamily%3DPT%2BSerif;fontSize=11;" parent="1" vertex="1">
          <mxGeometry x="275" y="285" width="80" height="27" as="geometry" />
        </mxCell>
        <mxCell id="erCxGVNcBSu2ljuZGB63-19" style="edgeStyle=orthogonalEdgeStyle;rounded=0;orthogonalLoop=1;jettySize=auto;html=1;exitX=0.5;exitY=0;exitDx=0;exitDy=0;entryX=0.5;entryY=1;entryDx=0;entryDy=0;startArrow=none;startFill=0;endArrow=classic;endFill=1;fontSize=11;fontFamily=PT Serif;fontSource=https%3A%2F%2Ffonts.googleapis.com%2Fcss%3Ffamily%3DPT%2BSerif;" parent="1" source="erCxGVNcBSu2ljuZGB63-3" target="erCxGVNcBSu2ljuZGB63-2" edge="1">
          <mxGeometry relative="1" as="geometry" />
        </mxCell>
        <mxCell id="erCxGVNcBSu2ljuZGB63-3" value="&lt;font style=&quot;font-size: 11px;&quot;&gt;Red neuronal retro-alimentada&lt;/font&gt;" style="rounded=1;whiteSpace=wrap;html=1;fillColor=#dae8fc;strokeColor=#1A1A1A;flipV=1;fontFamily=PT Serif;fontSource=https%3A%2F%2Ffonts.googleapis.com%2Fcss%3Ffamily%3DPT%2BSerif;fontSize=11;" parent="1" vertex="1">
          <mxGeometry x="270.99999999999983" y="331" width="85" height="54" as="geometry" />
        </mxCell>
        <mxCell id="erCxGVNcBSu2ljuZGB63-11" style="edgeStyle=orthogonalEdgeStyle;rounded=1;orthogonalLoop=1;jettySize=auto;html=1;exitX=0;exitY=0.444;exitDx=0;exitDy=0;startArrow=classic;startFill=1;endArrow=none;endFill=0;fontSize=11;fontFamily=PT Serif;fontSource=https%3A%2F%2Ffonts.googleapis.com%2Fcss%3Ffamily%3DPT%2BSerif;exitPerimeter=0;" parent="1" source="6JTqqpPswOs1U7iw3UKr-2" edge="1">
          <mxGeometry relative="1" as="geometry">
            <mxPoint x="277.1034482758621" y="418.72413793103453" as="sourcePoint" />
            <mxPoint x="313" y="522" as="targetPoint" />
            <Array as="points">
              <mxPoint x="257" y="427" />
              <mxPoint x="257" y="522" />
            </Array>
          </mxGeometry>
        </mxCell>
        <mxCell id="erCxGVNcBSu2ljuZGB63-16" style="edgeStyle=orthogonalEdgeStyle;rounded=0;orthogonalLoop=1;jettySize=auto;html=1;exitX=0.5;exitY=0;exitDx=0;exitDy=0;entryX=0.5;entryY=1;entryDx=0;entryDy=0;startArrow=none;startFill=0;endArrow=classic;endFill=1;fontSize=11;fontFamily=PT Serif;fontSource=https%3A%2F%2Ffonts.googleapis.com%2Fcss%3Ffamily%3DPT%2BSerif;" parent="1" source="6JTqqpPswOs1U7iw3UKr-2" target="erCxGVNcBSu2ljuZGB63-3" edge="1">
          <mxGeometry relative="1" as="geometry">
            <mxPoint x="314.5" y="406" as="sourcePoint" />
          </mxGeometry>
        </mxCell>
        <mxCell id="erCxGVNcBSu2ljuZGB63-15" style="edgeStyle=orthogonalEdgeStyle;rounded=0;orthogonalLoop=1;jettySize=auto;html=1;exitX=0.5;exitY=0;exitDx=0;exitDy=0;entryX=0.5;entryY=1;entryDx=0;entryDy=0;startArrow=none;startFill=0;endArrow=classic;endFill=1;fontSize=11;fontFamily=PT Serif;fontSource=https%3A%2F%2Ffonts.googleapis.com%2Fcss%3Ffamily%3DPT%2BSerif;" parent="1" source="erCxGVNcBSu2ljuZGB63-5" target="6JTqqpPswOs1U7iw3UKr-2" edge="1">
          <mxGeometry relative="1" as="geometry">
            <mxPoint x="314.5" y="434" as="targetPoint" />
          </mxGeometry>
        </mxCell>
        <mxCell id="erCxGVNcBSu2ljuZGB63-5" value="&lt;font style=&quot;font-size: 11px;&quot;&gt;Atención multicabezal&lt;/font&gt;" style="rounded=1;whiteSpace=wrap;html=1;fillColor=#99CCFF;strokeColor=#1A1A1A;flipV=1;fontFamily=PT Serif;fontSource=https%3A%2F%2Ffonts.googleapis.com%2Fcss%3Ffamily%3DPT%2BSerif;gradientColor=none;align=center;fontSize=11;" parent="1" vertex="1">
          <mxGeometry x="271" y="461" width="85" height="46" as="geometry" />
        </mxCell>
        <mxCell id="erCxGVNcBSu2ljuZGB63-8" style="edgeStyle=orthogonalEdgeStyle;rounded=0;orthogonalLoop=1;jettySize=auto;html=1;exitX=0.5;exitY=0;exitDx=0;exitDy=0;entryX=0.5;entryY=1;entryDx=0;entryDy=0;fontSize=11;fontFamily=PT Serif;fontSource=https%3A%2F%2Ffonts.googleapis.com%2Fcss%3Ffamily%3DPT%2BSerif;" parent="1" edge="1">
          <mxGeometry relative="1" as="geometry">
            <mxPoint x="313.5" y="558" as="sourcePoint" />
            <mxPoint x="313.4999999999998" y="506.9999999999999" as="targetPoint" />
          </mxGeometry>
        </mxCell>
        <mxCell id="erCxGVNcBSu2ljuZGB63-7" value="" style="endArrow=classic;html=1;entryX=0.5;entryY=1;entryDx=0;entryDy=0;fontSize=11;fontFamily=PT Serif;fontSource=https%3A%2F%2Ffonts.googleapis.com%2Fcss%3Ffamily%3DPT%2BSerif;" parent="1" edge="1">
          <mxGeometry width="50" height="50" relative="1" as="geometry">
            <mxPoint x="314" y="618" as="sourcePoint" />
            <mxPoint x="313.5" y="584" as="targetPoint" />
          </mxGeometry>
        </mxCell>
        <mxCell id="jo1FwagnRR1Xz1HvLgAa-1" style="edgeStyle=orthogonalEdgeStyle;orthogonalLoop=1;jettySize=auto;html=1;entryX=0.75;entryY=1;entryDx=0;entryDy=0;curved=1;fontSize=11;fontFamily=PT Serif;fontSource=https%3A%2F%2Ffonts.googleapis.com%2Fcss%3Ffamily%3DPT%2BSerif;" parent="1" target="erCxGVNcBSu2ljuZGB63-5" edge="1">
          <mxGeometry relative="1" as="geometry">
            <mxPoint x="314" y="522" as="sourcePoint" />
            <mxPoint x="323" y="517" as="targetPoint" />
            <Array as="points">
              <mxPoint x="314" y="522" />
              <mxPoint x="335" y="522" />
            </Array>
          </mxGeometry>
        </mxCell>
        <mxCell id="jo1FwagnRR1Xz1HvLgAa-2" style="edgeStyle=orthogonalEdgeStyle;orthogonalLoop=1;jettySize=auto;html=1;entryX=0.25;entryY=1;entryDx=0;entryDy=0;curved=1;fontSize=11;fontFamily=PT Serif;fontSource=https%3A%2F%2Ffonts.googleapis.com%2Fcss%3Ffamily%3DPT%2BSerif;" parent="1" edge="1">
          <mxGeometry relative="1" as="geometry">
            <mxPoint x="313" y="522" as="sourcePoint" />
            <mxPoint x="292.2499999999999" y="506.9999999999999" as="targetPoint" />
            <Array as="points">
              <mxPoint x="313" y="522" />
              <mxPoint x="292" y="522" />
            </Array>
          </mxGeometry>
        </mxCell>
        <mxCell id="jo1FwagnRR1Xz1HvLgAa-3" style="edgeStyle=orthogonalEdgeStyle;rounded=1;orthogonalLoop=1;jettySize=auto;html=1;exitX=0;exitY=0.5;exitDx=0;exitDy=0;startArrow=classic;startFill=1;endArrow=none;endFill=0;fontSize=11;fontFamily=PT Serif;fontSource=https%3A%2F%2Ffonts.googleapis.com%2Fcss%3Ffamily%3DPT%2BSerif;" parent="1" source="erCxGVNcBSu2ljuZGB63-2" edge="1">
          <mxGeometry relative="1" as="geometry">
            <mxPoint x="278.0734482758621" y="296.03413793103454" as="sourcePoint" />
            <mxPoint x="313.97" y="399.31" as="targetPoint" />
            <Array as="points">
              <mxPoint x="258" y="299" />
              <mxPoint x="258" y="399" />
            </Array>
          </mxGeometry>
        </mxCell>
        <mxCell id="jo1FwagnRR1Xz1HvLgAa-4" value="&lt;i style=&quot;font-size: 11px;&quot;&gt;&lt;font data-font-src=&quot;https://fonts.googleapis.com/css?family=PT+Serif&quot; style=&quot;font-size: 11px;&quot;&gt;n x&lt;/font&gt;&lt;/i&gt;" style="text;html=1;align=center;verticalAlign=middle;resizable=0;points=[];autosize=1;strokeColor=none;fillColor=none;fontSize=11;fontFamily=PT Serif;fontSource=https%3A%2F%2Ffonts.googleapis.com%2Fcss%3Ffamily%3DPT%2BSerif;" parent="1" vertex="1">
          <mxGeometry x="200" y="387" width="33" height="25" as="geometry" />
        </mxCell>
        <mxCell id="jo1FwagnRR1Xz1HvLgAa-6" value="" style="shape=orEllipse;perimeter=ellipsePerimeter;whiteSpace=wrap;html=1;backgroundOutline=1;fontSize=11;fontFamily=PT Serif;fontSource=https%3A%2F%2Ffonts.googleapis.com%2Fcss%3Ffamily%3DPT%2BSerif;" parent="1" vertex="1">
          <mxGeometry x="301" y="558" width="25" height="25" as="geometry" />
        </mxCell>
        <mxCell id="jo1FwagnRR1Xz1HvLgAa-10" value="" style="endArrow=none;html=1;rounded=0;exitX=0;exitY=0.5;exitDx=0;exitDy=0;fontSize=11;fontFamily=PT Serif;fontSource=https%3A%2F%2Ffonts.googleapis.com%2Fcss%3Ffamily%3DPT%2BSerif;" parent="1" source="jo1FwagnRR1Xz1HvLgAa-6" edge="1">
          <mxGeometry width="50" height="50" relative="1" as="geometry">
            <mxPoint x="286" y="571" as="sourcePoint" />
            <mxPoint x="301" y="571" as="targetPoint" />
          </mxGeometry>
        </mxCell>
        <mxCell id="n1pnrjjPw9y0WNeoDxGA-1" value="&lt;font data-font-src=&quot;https://fonts.googleapis.com/css?family=PT+Serif&quot; style=&quot;font-size: 11px;&quot;&gt;Codificación posicional&lt;/font&gt;" style="rounded=1;whiteSpace=wrap;html=1;fontSize=11;fontFamily=PT Serif;fontSource=https%3A%2F%2Ffonts.googleapis.com%2Fcss%3Ffamily%3DPT%2BSerif;" parent="1" vertex="1">
          <mxGeometry x="171" y="547" width="98" height="42" as="geometry" />
        </mxCell>
        <mxCell id="n1pnrjjPw9y0WNeoDxGA-6" value="&lt;font data-font-src=&quot;https://fonts.googleapis.com/css?family=PT+Serif&quot; style=&quot;font-size: 11px;&quot;&gt;Tokenización&lt;/font&gt;" style="rounded=1;whiteSpace=wrap;html=1;fontSize=11;fontFamily=PT Serif;fontSource=https%3A%2F%2Ffonts.googleapis.com%2Fcss%3Ffamily%3DPT%2BSerif;" parent="1" vertex="1">
          <mxGeometry x="271" y="609" width="84" height="32" as="geometry" />
        </mxCell>
        <mxCell id="n1pnrjjPw9y0WNeoDxGA-9" value="" style="endArrow=classic;html=1;rounded=0;entryX=1.023;entryY=0.812;entryDx=0;entryDy=0;entryPerimeter=0;fontSize=11;fontFamily=PT Serif;fontSource=https%3A%2F%2Ffonts.googleapis.com%2Fcss%3Ffamily%3DPT%2BSerif;" parent="1" edge="1">
          <mxGeometry width="50" height="50" relative="1" as="geometry">
            <mxPoint x="269" y="570" as="sourcePoint" />
            <mxPoint x="300.9999999999998" y="570.0520000000001" as="targetPoint" />
          </mxGeometry>
        </mxCell>
        <mxCell id="n1pnrjjPw9y0WNeoDxGA-35" value="&lt;font data-font-src=&quot;https://fonts.googleapis.com/css?family=PT+Serif&quot; style=&quot;font-size: 12px;&quot;&gt;GPT&lt;/font&gt;" style="text;html=1;strokeColor=none;fillColor=none;align=center;verticalAlign=middle;whiteSpace=wrap;rounded=0;fontSize=12;fontStyle=1;fontFamily=PT Serif;fontSource=https%3A%2F%2Ffonts.googleapis.com%2Fcss%3Ffamily%3DPT%2BSerif;" parent="1" vertex="1">
          <mxGeometry x="283" y="214" width="60" height="30" as="geometry" />
        </mxCell>
        <mxCell id="n1pnrjjPw9y0WNeoDxGA-36" value="" style="ellipse;whiteSpace=wrap;html=1;aspect=fixed;fontSize=11;fontFamily=PT Serif;fontSource=https%3A%2F%2Ffonts.googleapis.com%2Fcss%3Ffamily%3DPT%2BSerif;" parent="1" vertex="1">
          <mxGeometry x="301" y="558" width="25" height="25" as="geometry" />
        </mxCell>
        <mxCell id="n1pnrjjPw9y0WNeoDxGA-38" value="+" style="text;html=1;strokeColor=none;fillColor=none;align=center;verticalAlign=middle;whiteSpace=wrap;rounded=0;fontSize=11;fontFamily=PT Serif;fontSource=https%3A%2F%2Ffonts.googleapis.com%2Fcss%3Ffamily%3DPT%2BSerif;" parent="1" vertex="1">
          <mxGeometry x="289.25" y="554" width="48.5" height="30" as="geometry" />
        </mxCell>
        <mxCell id="n1pnrjjPw9y0WNeoDxGA-40" value="&lt;font data-font-src=&quot;https://fonts.googleapis.com/css?family=PT+Serif&quot; style=&quot;font-size: 11px;&quot;&gt;Entrada&lt;/font&gt;" style="text;html=1;strokeColor=none;fillColor=none;align=center;verticalAlign=middle;whiteSpace=wrap;rounded=0;fontSize=11;fontFamily=PT Serif;fontSource=https%3A%2F%2Ffonts.googleapis.com%2Fcss%3Ffamily%3DPT%2BSerif;" parent="1" vertex="1">
          <mxGeometry x="283" y="656" width="60" height="30" as="geometry" />
        </mxCell>
        <mxCell id="n1pnrjjPw9y0WNeoDxGA-42" value="" style="endArrow=classic;html=1;rounded=0;fontSize=11;fontFamily=PT Serif;fontSource=https%3A%2F%2Ffonts.googleapis.com%2Fcss%3Ffamily%3DPT%2BSerif;" parent="1" edge="1">
          <mxGeometry width="50" height="50" relative="1" as="geometry">
            <mxPoint x="314" y="662" as="sourcePoint" />
            <mxPoint x="314" y="641" as="targetPoint" />
          </mxGeometry>
        </mxCell>
        <mxCell id="6JTqqpPswOs1U7iw3UKr-2" value="&lt;font style=&quot;font-size: 11px;&quot;&gt;Normalización&lt;/font&gt;" style="rounded=1;whiteSpace=wrap;html=1;fillColor=#FFFFFF;strokeColor=#1A1A1A;flipV=1;fontFamily=PT Serif;fontSource=https%3A%2F%2Ffonts.googleapis.com%2Fcss%3Ffamily%3DPT%2BSerif;fontSize=11;" parent="1" vertex="1">
          <mxGeometry x="276" y="412" width="80" height="27" as="geometry" />
        </mxCell>
      </root>
    </mxGraphModel>
  </diagram>
</mxfile>
